<svg width="67" height="32" viewBox="0 0 67 32" fill="none" xmlns="http://www.w3.org/2000/svg">
<g filter="url(#filter0_d_261_945)">
<rect x="4.5" y="2" width="58" height="24" rx="3" fill="#E74040"/>
<path d="M16.0391 19V9.2H17.9151L23.6971 16.256H22.7871V9.2H25.0271V19H23.1651L17.3691 11.944H18.2791V19H16.0391ZM29.6318 13.148H34.3498V14.912H29.6318V13.148ZM29.7998 17.18H35.1338V19H27.5458V9.2H34.9518V11.02H29.7998V17.18ZM39.3536 19L36.1476 9.2H38.4996L41.2856 17.88H40.1096L43.0216 9.2H45.1216L47.9216 17.88H46.7876L49.6436 9.2H51.8136L48.6076 19H46.1716L43.6936 11.384H44.3376L41.7896 19H39.3536Z" fill="white"/>
</g>
<defs>
<filter id="filter0_d_261_945" x="0.5" y="0" width="66" height="32" filterUnits="userSpaceOnUse" color-interpolation-filters="sRGB">
<feFlood flood-opacity="0" result="BackgroundImageFix"/>
<feColorMatrix in="SourceAlpha" type="matrix" values="0 0 0 0 0 0 0 0 0 0 0 0 0 0 0 0 0 0 127 0" result="hardAlpha"/>
<feOffset dy="2"/>
<feGaussianBlur stdDeviation="2"/>
<feColorMatrix type="matrix" values="0 0 0 0 0 0 0 0 0 0 0 0 0 0 0 0 0 0 0.1 0"/>
<feBlend mode="normal" in2="BackgroundImageFix" result="effect1_dropShadow_261_945"/>
<feBlend mode="normal" in="SourceGraphic" in2="effect1_dropShadow_261_945" result="shape"/>
</filter>
</defs>
</svg>
